<?xml version="1.0" standalone="no"?><!DOCTYPE svg PUBLIC "-//W3C//DTD SVG 1.1//EN" "http://www.w3.org/Graphics/SVG/1.1/DTD/svg11.dtd"><svg t="1581945332588" class="icon" viewBox="0 0 1024 1024" version="1.1" xmlns="http://www.w3.org/2000/svg" p-id="601" xmlns:xlink="http://www.w3.org/1999/xlink" width="200" height="200"><defs><style type="text/css"></style></defs><path d="M948.816 83.348l-433.27 437.368c-0.648 0.647-0.863 1.51-1.402 2.157-0.108 0.108-0.43199999 0.216-0.54 0.324-15.42 15.527-15.312 40.652 0.216 56.072L951.08 1012.504c15.528 15.42 40.546 15.312 55.966-0.215 7.584-7.693 11.42999999-17.865 11.43-27.93a39.61 39.61 0 0 0-11.754-28.143l-409.44-405.666L1005.105 139.097c7.584-7.692 11.43-17.756 11.43000001-27.928 0-10.28-3.954-20.416-11.75400001-28.144-15.384-15.385-40.545-15.169-55.965 0.323z" p-id="602"></path></svg>